<svg xmlns="http://www.w3.org/2000/svg" version="1.1" xmlns:xlink="http://www.w3.org/1999/xlink" xmlns:svgjs="http://svgjs.dev/svgjs" width="1000" height="1000" viewBox="0 0 1000 1000"><rect width="1000" height="1000" fill="#ca3433"></rect><g transform="matrix(0.7,0,0,0.7,150.52478931310299,22.986558704453387)"><svg viewBox="0 0 181 247" data-background-color="#ca3433" preserveAspectRatio="xMidYMid meet" height="1364" width="1000" xmlns="http://www.w3.org/2000/svg" xmlns:xlink="http://www.w3.org/1999/xlink"><g id="tight-bounds" transform="matrix(1,0,0,1,-0.13569552238806182,-0.09999999999999432)"><svg viewBox="0 0 181.27139104477612 247.2" height="247.2" width="181.27139104477612"><g><svg></svg></g><g><svg viewBox="0 0 181.27139104477612 247.2" height="247.2" width="181.27139104477612"><g transform="matrix(1,0,0,1,0,47.215199999999996)"><svg viewBox="0 0 181.27139104477612 152.7696" height="152.7696" width="181.27139104477612"><g><svg viewBox="0 0 181.27139104477612 152.7696" height="152.7696" width="181.27139104477612"><g><svg viewBox="0 0 181.27139104477612 152.7696" height="152.7696" width="181.27139104477612"><g id="textblocktransform"><svg viewBox="0 0 181.27139104477612 152.7696" height="152.7696" width="181.27139104477612" id="textblock"><g><svg viewBox="0 0 181.27139104477612 152.7696" height="152.7696" width="181.27139104477612"><g transform="matrix(1,0,0,1,0,0)"><svg width="181.27139104477612" viewBox="1.5 -33.5 39.75 33.5" height="152.7696" data-palette-color="#f7e1e1"><path d="M13.1 0L1.5 0 1.5-33.5 18.75-33.5 21.35-20.7 23.5-33.5 41.25-33.5 41.25 0 29.65 0 29.65-17.25 29.1-17.25 26.2-0.35 16.5-0.35 13.65-17.25 13.1-17.25 13.1 0Z" opacity="1" transform="matrix(1,0,0,1,0,0)" fill="#f7e1e1" class="wordmark-text-0" data-fill-palette-color="primary" id="text-0"></path></svg></g></svg></g></svg></g></svg></g><g></g></svg></g></svg></g><path d="M0 41.215L0 1 181.271 1 181.271 41.215 167.494 41.215 167.494 14.777 13.777 14.777 13.777 41.215 0 41.215M0 205.985L0 246.2 181.271 246.2 181.271 205.985 167.494 205.985 167.494 232.423 13.777 232.423 13.777 205.985 0 205.985" fill="#f7e1e1" stroke="transparent" data-fill-palette-color="primary"></path></svg></g><defs></defs></svg><rect width="181.27139104477612" height="247.2" fill="none" stroke="none" visibility="hidden"></rect></g></svg></g></svg>